<svg width="24" height="24" viewBox="0 0 24 24" fill="none" xmlns="http://www.w3.org/2000/svg">
<mask id="path-1-inside-1_0_2321" fill="white">
<path fill-rule="evenodd" clip-rule="evenodd" d="M4.25183 7.3159C2.82854 8.45454 2 10.1784 2 12.0011V17.1174C2 19.8788 4.23858 22.1174 7 22.1174H17C19.7614 22.1174 22 19.8788 22 17.1174V12.0011C22 10.1784 21.1715 8.45454 19.7482 7.3159L14.4988 3.11639C13.0379 1.94769 10.9621 1.94769 9.50122 3.11639L4.25183 7.3159ZM12 15.1174C11.4477 15.1174 11 15.5651 11 16.1174V19.1174C11 19.6697 11.4477 20.1174 12 20.1174C12.5523 20.1174 13 19.6697 13 19.1174V16.1174C13 15.5651 12.5523 15.1174 12 15.1174Z"/>
</mask>
<path d="M4.25183 7.3159L5.18887 8.48721L4.25183 7.3159ZM19.7482 7.3159L18.8111 8.48721V8.48721L19.7482 7.3159ZM14.4988 3.11639L15.4358 1.94509V1.94509L14.4988 3.11639ZM9.50122 3.11639L8.56418 1.94509L9.50122 3.11639ZM3.5 12.0011C3.5 10.6341 4.1214 9.34118 5.18887 8.48721L3.31479 6.1446C1.53567 7.56789 0.5 9.72274 0.5 12.0011H3.5ZM3.5 17.1174V12.0011H0.5V17.1174H3.5ZM7 20.6174C5.067 20.6174 3.5 19.0504 3.5 17.1174H0.5C0.5 20.7072 3.41015 23.6174 7 23.6174V20.6174ZM17 20.6174H7V23.6174H17V20.6174ZM20.5 17.1174C20.5 19.0504 18.933 20.6174 17 20.6174V23.6174C20.5898 23.6174 23.5 20.7072 23.5 17.1174H20.5ZM20.5 12.0011V17.1174H23.5V12.0011H20.5ZM18.8111 8.48721C19.8786 9.34118 20.5 10.6341 20.5 12.0011H23.5C23.5 9.72274 22.4643 7.56789 20.6852 6.1446L18.8111 8.48721ZM13.5617 4.2877L18.8111 8.48721L20.6852 6.1446L15.4358 1.94509L13.5617 4.2877ZM10.4383 4.2877C11.3513 3.55726 12.6487 3.55726 13.5617 4.2877L15.4358 1.94509C13.4271 0.338127 10.5729 0.338128 8.56418 1.94509L10.4383 4.2877ZM5.18887 8.48721L10.4383 4.2877L8.56418 1.94509L3.31479 6.1446L5.18887 8.48721ZM12.5 16.1174C12.5 16.3935 12.2761 16.6174 12 16.6174V13.6174C10.6193 13.6174 9.5 14.7367 9.5 16.1174H12.5ZM12.5 19.1174V16.1174H9.5V19.1174H12.5ZM12 18.6174C12.2761 18.6174 12.5 18.8412 12.5 19.1174H9.5C9.5 20.4981 10.6193 21.6174 12 21.6174V18.6174ZM11.5 19.1174C11.5 18.8412 11.7239 18.6174 12 18.6174V21.6174C13.3807 21.6174 14.5 20.4981 14.5 19.1174H11.5ZM11.5 16.1174V19.1174H14.5V16.1174H11.5ZM12 16.6174C11.7239 16.6174 11.5 16.3935 11.5 16.1174H14.5C14.5 14.7367 13.3807 13.6174 12 13.6174V16.6174Z" fill="#828A99" mask="url(#path-1-inside-1_0_2321)"/>
</svg>
