<svg xmlns="http://www.w3.org/2000/svg" width="100" height="100" viewBox="0 0 100 100" version="1.1"><path d="" stroke="none" fill="#f86424" fill-rule="evenodd"/><path d="M 43.233 10.038 C 40.545 11.117, 16.474 30.371, 13.289 33.989 C 9.054 38.799, 7.998 44.200, 8.022 60.928 C 8.047 78.762, 9.073 82.441, 15.492 87.732 C 21.059 92.321, 25.504 93, 50 93 C 74.496 93, 78.941 92.321, 84.508 87.732 C 90.927 82.441, 91.953 78.762, 91.978 60.928 C 92.002 44.200, 90.946 38.799, 86.711 33.989 C 83.227 30.032, 59.354 11.085, 56.470 9.989 C 53.287 8.779, 46.303 8.804, 43.233 10.038 M 47.200 65.200 C 45.723 66.677, 45.601 78.386, 47.035 81.066 C 47.605 82.130, 48.939 83, 50 83 C 52.814 83, 54 79.966, 54 72.766 C 54 66.302, 52.950 64, 50 64 C 49.120 64, 47.860 64.540, 47.200 65.200" stroke="none" fill="#f46424" fill-rule="evenodd"/></svg>