<svg xmlns="http://www.w3.org/2000/svg" width="100" height="100" viewBox="0 0 100 100" version="1.1"><path d="" stroke="none" fill="#f86424" fill-rule="evenodd"/><path d="M 20.962 14.250 C 17.702 15.894, 15.894 17.702, 14.250 20.962 C 12.099 25.228, 12 26.502, 12 50 C 12 73.498, 12.099 74.772, 14.250 79.038 C 15.894 82.298, 17.702 84.106, 20.962 85.750 C 25.228 87.901, 26.502 88, 50 88 C 73.498 88, 74.772 87.901, 79.038 85.750 C 82.298 84.106, 84.106 82.298, 85.750 79.038 C 87.901 74.772, 88 73.498, 88 50 C 88 26.502, 87.901 25.228, 85.750 20.962 C 84.106 17.702, 82.298 15.894, 79.038 14.250 C 74.772 12.099, 73.498 12, 50 12 C 26.502 12, 25.228 12.099, 20.962 14.250 M 30.344 31.546 C 30.009 32.419, 30.164 33.564, 30.690 34.090 C 31.250 34.650, 39.481 34.933, 50.573 34.773 C 68.742 34.511, 69.500 34.420, 69.500 32.500 C 69.500 30.579, 68.743 30.489, 50.227 30.228 C 33.377 29.991, 30.877 30.156, 30.344 31.546 M 31.250 46.662 C 29.470 47.380, 29.701 50.671, 31.582 51.393 C 32.452 51.727, 37.991 52, 43.891 52 C 55.744 52, 59.655 50.699, 57.090 47.608 C 55.996 46.290, 53.657 46.014, 44.128 46.079 C 37.732 46.122, 31.938 46.385, 31.250 46.662 M 30.344 64.546 C 30.009 65.419, 30.164 66.564, 30.690 67.090 C 31.250 67.650, 39.481 67.933, 50.573 67.773 C 68.742 67.511, 69.500 67.420, 69.500 65.500 C 69.500 63.579, 68.743 63.489, 50.227 63.228 C 33.377 62.991, 30.877 63.156, 30.344 64.546" stroke="none" fill="#f46424" fill-rule="evenodd"/></svg>