<svg width="24" height="24" viewBox="0 0 24 24" fill="none" xmlns="http://www.w3.org/2000/svg">
<mask id="path-1-inside-1_0_334" fill="white">
<path fill-rule="evenodd" clip-rule="evenodd" d="M19.5 6.5V17.5C19.5 18.0523 19.0523 18.5 18.5 18.5C17.9477 18.5 17.5 18.0523 17.5 17.5V6.5C17.5 5.94772 17.9477 5.5 18.5 5.5C19.0523 5.5 19.5 5.94772 19.5 6.5ZM16 6.5C16 5.11929 17.1193 4 18.5 4C19.8807 4 21 5.11929 21 6.5V17.5C21 18.8807 19.8807 20 18.5 20C17.1193 20 16 18.8807 16 17.5V6.5ZM12.5 11.5C12.5 10.9477 12.0523 10.5 11.5 10.5C10.9477 10.5 10.5 10.9477 10.5 11.5V17.5C10.5 18.0523 10.9477 18.5 11.5 18.5C12.0523 18.5 12.5 18.0523 12.5 17.5V11.5ZM11.5 9C10.1193 9 9 10.1193 9 11.5V17.5C9 18.8807 10.1193 20 11.5 20C12.8807 20 14 18.8807 14 17.5V11.5C14 10.1193 12.8807 9 11.5 9ZM5.5 17.5V15.5C5.5 14.9477 5.05228 14.5 4.5 14.5C3.94772 14.5 3.5 14.9477 3.5 15.5V17.5C3.5 18.0523 3.94772 18.5 4.5 18.5C5.05228 18.5 5.5 18.0523 5.5 17.5ZM4.5 13C3.11929 13 2 14.1193 2 15.5V17.5C2 18.8807 3.11929 20 4.5 20C5.88071 20 7 18.8807 7 17.5V15.5C7 14.1193 5.88071 13 4.5 13Z"/>
</mask>
<path d="M21 17.5V6.5H18V17.5H21ZM18.5 20C19.8807 20 21 18.8807 21 17.5H18C18 17.2239 18.2239 17 18.5 17V20ZM16 17.5C16 18.8807 17.1193 20 18.5 20V17C18.7761 17 19 17.2239 19 17.5H16ZM16 6.5V17.5H19V6.5H16ZM18.5 4C17.1193 4 16 5.11929 16 6.5H19C19 6.77614 18.7761 7 18.5 7V4ZM21 6.5C21 5.11929 19.8807 4 18.5 4V7C18.2239 7 18 6.77614 18 6.5H21ZM18.5 2.5C16.2909 2.5 14.5 4.29086 14.5 6.5H17.5C17.5 5.94772 17.9477 5.5 18.5 5.5V2.5ZM22.5 6.5C22.5 4.29086 20.7091 2.5 18.5 2.5V5.5C19.0523 5.5 19.5 5.94772 19.5 6.5H22.5ZM22.5 17.5V6.5H19.5V17.5H22.5ZM18.5 21.5C20.7091 21.5 22.5 19.7091 22.5 17.5H19.5C19.5 18.0523 19.0523 18.5 18.5 18.5V21.5ZM14.5 17.5C14.5 19.7091 16.2909 21.5 18.5 21.5V18.5C17.9477 18.5 17.5 18.0523 17.5 17.5H14.5ZM14.5 6.5V17.5H17.5V6.5H14.5ZM11.5 12C11.2239 12 11 11.7761 11 11.5H14C14 10.1193 12.8807 9 11.5 9V12ZM12 11.5C12 11.7761 11.7761 12 11.5 12V9C10.1193 9 9 10.1193 9 11.5H12ZM12 17.5V11.5H9V17.5H12ZM11.5 17C11.7761 17 12 17.2239 12 17.5H9C9 18.8807 10.1193 20 11.5 20V17ZM11 17.5C11 17.2239 11.2239 17 11.5 17V20C12.8807 20 14 18.8807 14 17.5H11ZM11 11.5V17.5H14V11.5H11ZM10.5 11.5C10.5 10.9477 10.9477 10.5 11.5 10.5V7.5C9.29086 7.5 7.5 9.29086 7.5 11.5H10.5ZM10.5 17.5V11.5H7.5V17.5H10.5ZM11.5 18.5C10.9477 18.5 10.5 18.0523 10.5 17.5H7.5C7.5 19.7091 9.29086 21.5 11.5 21.5V18.5ZM12.5 17.5C12.5 18.0523 12.0523 18.5 11.5 18.5V21.5C13.7091 21.5 15.5 19.7091 15.5 17.5H12.5ZM12.5 11.5V17.5H15.5V11.5H12.5ZM11.5 10.5C12.0523 10.5 12.5 10.9477 12.5 11.5H15.5C15.5 9.29086 13.7091 7.5 11.5 7.5V10.5ZM4 15.5V17.5H7V15.5H4ZM4.5 16C4.22386 16 4 15.7761 4 15.5H7C7 14.1193 5.88071 13 4.5 13V16ZM5 15.5C5 15.7761 4.77614 16 4.5 16V13C3.11929 13 2 14.1193 2 15.5H5ZM5 17.5V15.5H2V17.5H5ZM4.5 17C4.77614 17 5 17.2239 5 17.5H2C2 18.8807 3.11929 20 4.5 20V17ZM4 17.5C4 17.2239 4.22386 17 4.5 17V20C5.88071 20 7 18.8807 7 17.5H4ZM3.5 15.5C3.5 14.9477 3.94772 14.5 4.5 14.5V11.5C2.29086 11.5 0.5 13.2909 0.5 15.5H3.5ZM3.5 17.5V15.5H0.5V17.5H3.5ZM4.5 18.5C3.94772 18.5 3.5 18.0523 3.5 17.5H0.5C0.5 19.7091 2.29086 21.5 4.5 21.5V18.5ZM5.5 17.5C5.5 18.0523 5.05228 18.5 4.5 18.5V21.5C6.70914 21.5 8.5 19.7091 8.5 17.5H5.5ZM5.5 15.5V17.5H8.5V15.5H5.5ZM4.5 14.5C5.05228 14.5 5.5 14.9477 5.5 15.5H8.5C8.5 13.2909 6.70914 11.5 4.5 11.5V14.5Z" fill="#828A99" mask="url(#path-1-inside-1_0_334)"/>
</svg>
