<svg xmlns="http://www.w3.org/2000/svg" width="100" height="100" viewBox="0 0 100 100" version="1.1"><path d="" stroke="none" fill="#f86424" fill-rule="evenodd"/><path d="M 72.500 16.894 C 71.400 17.373, 69.600 18.764, 68.500 19.987 C 66.601 22.098, 66.500 23.618, 66.500 50.082 L 66.500 77.955 69.273 80.727 C 71.572 83.027, 72.909 83.500, 77.105 83.500 C 81.555 83.500, 82.515 83.107, 85.082 80.234 L 88 76.968 88 50 L 88 23.032 85.250 19.954 C 82.302 16.655, 76.340 15.224, 72.500 16.894 M 74.035 25.934 C 73.411 27.100, 73 36.657, 73 50 C 73 63.343, 73.411 72.900, 74.035 74.066 C 75.202 76.246, 77.998 76.602, 79.800 74.800 C 81.504 73.096, 81.504 26.904, 79.800 25.200 C 77.998 23.398, 75.202 23.754, 74.035 25.934 M 40.400 40.400 L 37 43.800 37 60.384 L 37 76.968 39.918 80.234 C 42.485 83.107, 43.445 83.500, 47.895 83.500 C 52.091 83.500, 53.428 83.027, 55.727 80.727 L 58.500 77.955 58.500 60.395 L 58.500 42.836 55.234 39.918 C 50.452 35.645, 44.977 35.823, 40.400 40.400 M 45.571 45.571 C 44.301 46.842, 44 49.679, 44 60.371 C 44 73.998, 44.534 76, 48.165 76 C 51.164 76, 52 72.577, 52 60.288 C 52 51.188, 51.639 47.930, 50.443 46.223 C 48.598 43.588, 47.678 43.465, 45.571 45.571 M 10.923 56.923 C 8.151 59.695, 8 60.285, 8 68.346 C 8 76.008, 8.253 77.147, 10.560 79.889 C 13.861 83.811, 18.948 84.872, 23.667 82.622 C 28.455 80.338, 30.312 75.521, 29.812 66.673 C 29.456 60.381, 29.134 59.509, 26.195 56.883 C 21.596 52.774, 15.055 52.791, 10.923 56.923 M 16.200 62.200 C 15.540 62.860, 15 65.753, 15 68.629 C 15 74.794, 16.958 77.628, 20.069 75.963 C 21.666 75.108, 22 73.830, 22 68.572 C 22 63.697, 21.631 62.072, 20.418 61.607 C 18.186 60.750, 17.562 60.838, 16.200 62.200" stroke="none" fill="#f46424" fill-rule="evenodd"/></svg>