<svg xmlns="http://www.w3.org/2000/svg" width="100" height="100" viewBox="0 0 100 100" version="1.1"><path d="" stroke="none" fill="#f86424" fill-rule="evenodd"/><path d="M 39.907 10.327 C 33.122 13.909, 29.644 19.601, 29.176 27.891 C 28.768 35.117, 30.069 39.118, 34.367 43.847 C 41.912 52.150, 58.088 52.150, 65.633 43.847 C 69.931 39.118, 71.232 35.117, 70.824 27.891 C 70.510 22.326, 69.898 20.318, 67.470 16.870 C 61.398 8.249, 49.288 5.374, 39.907 10.327 M 29.500 59.866 C 24.356 62.208, 18.428 68.798, 17.072 73.679 C 16.489 75.781, 16.009 80.763, 16.006 84.750 L 16 92 50 92 L 84 92 83.994 84.750 C 83.987 75.149, 82.624 70.699, 78.183 65.773 C 71.961 58.871, 68.945 58.044, 50 58.044 C 36.169 58.044, 32.853 58.339, 29.500 59.866" stroke="none" fill="#f46424" fill-rule="evenodd"/></svg>