<svg width="24" height="24" viewBox="0 0 24 24" fill="none" xmlns="http://www.w3.org/2000/svg">
<mask id="mask0_0_338" style="mask-type:alpha" maskUnits="userSpaceOnUse" x="0" y="0" width="24" height="24">
<rect width="24" height="24" fill="white"/>
</mask>
<g mask="url(#mask0_0_338)">
<path d="M12 11.25C9.65279 11.25 7.75 9.34721 7.75 7C7.75 4.65279 9.65279 2.75 12 2.75C14.3472 2.75 16.25 4.65279 16.25 7C16.25 9.34721 14.3472 11.25 12 11.25Z" stroke="#828A99" stroke-width="1.5" stroke-linecap="round" stroke-linejoin="round"/>
<path d="M4.75 21.25V19.3333C4.75 18.1178 5.23289 16.952 6.09243 16.0924C6.95197 15.2329 8.11776 14.75 9.33333 14.75H14.6667C15.8822 14.75 17.048 15.2329 17.9076 16.0924C18.7671 16.952 19.25 18.1178 19.25 19.3333V21.25H4.75Z" stroke="#828A99" stroke-width="1.5" stroke-linecap="round" stroke-linejoin="round"/>
</g>
</svg>
